<?xml version="1.0" encoding="UTF-8" standalone="no"?>
<!-- Created with Inkscape (http://www.inkscape.org/) -->

<svg
   xmlns:dc="http://purl.org/dc/elements/1.1/"
   xmlns:cc="http://creativecommons.org/ns#"
   xmlns:rdf="http://www.w3.org/1999/02/22-rdf-syntax-ns#"
   xmlns:svg="http://www.w3.org/2000/svg"
   xmlns="http://www.w3.org/2000/svg"
   xmlns:sodipodi="http://sodipodi.sourceforge.net/DTD/sodipodi-0.dtd"
   xmlns:inkscape="http://www.inkscape.org/namespaces/inkscape"
   width="970"
   height="260"
   viewBox="0 0 970 260"
   id="svg4144"
   version="1.1"
   inkscape:version="0.91 r13725"
   sodipodi:docname="filmder-logo.svg">
  <defs
     id="defs4146" />
  <sodipodi:namedview
     id="base"
     pagecolor="#ffffff"
     bordercolor="#666666"
     borderopacity="1.0"
     inkscape:pageopacity="0.0"
     inkscape:pageshadow="2"
     inkscape:zoom="0.98994949"
     inkscape:cx="518.0715"
     inkscape:cy="145.39466"
     inkscape:document-units="px"
     inkscape:current-layer="layer1"
     showgrid="false"
     units="px"
     inkscape:window-width="1920"
     inkscape:window-height="1056"
     inkscape:window-x="0"
     inkscape:window-y="24"
     inkscape:window-maximized="1" />
  <metadata
     id="metadata4149">
    <rdf:RDF>
      <cc:Work
         rdf:about="">
        <dc:format>image/svg+xml</dc:format>
        <dc:type
           rdf:resource="http://purl.org/dc/dcmitype/StillImage" />
        <dc:title></dc:title>
      </cc:Work>
    </rdf:RDF>
  </metadata>
  <g
     inkscape:label="Layer 1"
     inkscape:groupmode="layer"
     id="layer1"
     transform="translate(0,-792.36216)">
    <g
       id="g4771"
       transform="translate(-18,-2)">
      <path
         d="m 67.426965,921.39293 0,125.04047 -42.649475,0 0,-164.13582 c 0,-10.98547 1.615511,-21.10933 4.846532,-30.37159 3.231021,-9.47767 7.969851,-17.44752 14.216491,-23.90956 6.462042,-6.46204 14.324193,-11.20087 23.586452,-14.21649 9.26226,-3.23102 19.924629,-4.20033 31.987107,-2.90792 l 0,38.12605 c -10.554669,-0.64621 -18.52452,1.50781 -23.909555,6.46204 -5.169633,4.95423 -7.862151,13.24719 -8.077552,24.87886 l 97.253725,0 0,166.07443 -42.64948,0 0,-125.04047 z"
         style="font-style:normal;font-variant:normal;font-weight:500;font-stretch:normal;font-size:medium;line-height:125%;font-family:Chalet;-inkscape-font-specification:'Chalet Medium';letter-spacing:0px;word-spacing:0px;fill:#007bff;fill-opacity:0.94117647;stroke:none;stroke-width:1px;stroke-linecap:butt;stroke-linejoin:miter;stroke-opacity:1"
         id="path4753"
         inkscape:connector-curvature="0"
         sodipodi:nodetypes="cccscccccccccccc" />
      <path
         d="m 182.07471,806.04549 42.97258,0 0,170.5979 q 0,17.77061 7.75445,24.87881 8.07755,6.7852 23.90955,5.8159 l 0,38.7722 q -18.41682,1.9386 -32.31021,-2.2617 -13.89339,-4.2003 -23.26335,-13.2472 -9.36996,-9.37 -14.21649,-22.9402 -4.84653,-13.8934 -4.84653,-31.01781 l 0,-170.5979 z"
         style="font-style:normal;font-variant:normal;font-weight:500;font-stretch:normal;font-size:medium;line-height:125%;font-family:Chalet;-inkscape-font-specification:'Chalet Medium';letter-spacing:0px;word-spacing:0px;fill:#007bff;fill-opacity:0.94117647;stroke:none;stroke-width:1px;stroke-linecap:butt;stroke-linejoin:miter;stroke-opacity:1"
         id="path4755"
         inkscape:connector-curvature="0" />
      <path
         d="m 520.95347,1046.4334 -42.64947,0 0,-97.25369 q 0,-3.55412 -0.96931,-8.72375 -0.9693,-5.49274 -4.20032,-10.66237 -3.23102,-5.16964 -9.36996,-8.72376 -6.13894,-3.55412 -16.80131,-3.55412 -14.21649,0 -23.26335,8.72375 -9.04686,8.72376 -9.04686,22.94025 l 0,97.25369 -42.64948,0 0,-97.25369 q 0,-3.55412 -0.9693,-8.72375 -0.96931,-5.49274 -4.20033,-10.66237 -2.90792,-5.16964 -9.04686,-8.72376 -6.13894,-3.55412 -16.80131,-3.55412 -14.53959,0 -23.58645,8.72375 -8.72375,8.72376 -8.72375,22.94025 l 0,97.25369 -42.64948,0 0,-96.28438 q 0,-15.832 5.16964,-29.40229 5.49273,-13.57029 15.18579,-23.58645 9.69307,-10.01617 23.58646,-15.5089 13.89338,-5.81584 31.01779,-5.81584 17.12442,0 30.3716,6.46204 13.57029,6.13894 22.61715,17.12441 9.36996,-10.98547 22.94024,-17.12441 13.57029,-6.46204 30.0485,-6.46204 17.44751,0 31.0178,5.49274 13.89339,5.49273 23.26335,15.5089 9.69306,9.69306 14.53959,23.26335 5.16963,13.57028 5.16963,30.04849 l 0,96.28438 z"
         style="font-style:normal;font-variant:normal;font-weight:500;font-stretch:normal;font-size:medium;line-height:125%;font-family:Chalet;-inkscape-font-specification:'Chalet Medium';letter-spacing:0px;word-spacing:0px;fill:#007bff;fill-opacity:0.94117647;stroke:none;stroke-width:1px;stroke-linecap:butt;stroke-linejoin:miter;stroke-opacity:1"
         id="path4757"
         inkscape:connector-curvature="0" />
      <path
         d="m 660.81486,963.71931 q 0,-10.01617 -3.55412,-18.73992 -3.23102,-8.72376 -9.04686,-15.1858 -5.81583,-6.46204 -13.57028,-10.01617 -7.75445,-3.87722 -16.47821,-3.87722 -8.72376,0 -16.47821,3.55412 -7.75445,3.55412 -13.57028,10.01617 -5.81584,6.46204 -9.36996,15.18579 -3.23103,8.72376 -3.23103,19.06303 0,10.01616 3.23103,18.73992 3.55412,8.40065 9.36996,14.86269 5.81583,6.13898 13.57028,9.69308 7.75445,3.5541 16.47821,3.5541 8.72376,0 16.47821,-3.5541 7.75445,-3.8772 13.57028,-10.01618 5.81584,-6.46204 9.04686,-14.86269 3.55412,-8.72376 3.55412,-18.41682 z m 42.64948,-0.32311 q 0,18.09372 -6.46204,33.92572 -6.13894,15.83198 -17.44751,27.78678 -11.30858,11.6316 -27.14058,18.4168 -15.5089,6.7851 -34.24882,6.7851 -19.06302,0 -34.89503,-6.7851 -15.50889,-6.7852 -26.81747,-18.4168 -11.30857,-11.9548 -17.77061,-27.78678 -6.13894,-15.832 -6.13894,-33.92572 0,-17.77061 6.13894,-33.60261 6.46204,-15.832 17.12441,-27.78678 10.98547,-11.95478 25.20196,-18.73992 14.53959,-6.78515 31.0178,-6.78515 29.72539,0 48.78841,19.38613 l 0,-89.82238 42.64948,0 0,157.35071 z"
         style="font-style:normal;font-variant:normal;font-weight:500;font-stretch:normal;font-size:medium;line-height:125%;font-family:Chalet;-inkscape-font-specification:'Chalet Medium';letter-spacing:0px;word-spacing:0px;fill:#007bff;fill-opacity:0.94117647;stroke:none;stroke-width:1px;stroke-linecap:butt;stroke-linejoin:miter;stroke-opacity:1"
         id="path4759"
         inkscape:connector-curvature="0" />
      <path
         d="m 832.10383,928.17808 q -5.81583,-7.10825 -14.21649,-10.98547 -8.40065,-3.87723 -18.73992,-3.87723 -9.36996,0 -17.44751,3.55412 -8.07755,3.55413 -14.21649,10.01617 -5.81584,6.13894 -9.69307,14.86269 -3.55412,8.72376 -3.87722,19.38613 l 78.1907,-32.95641 z m 47.81911,65.26662 q -7.43135,25.525 -28.43298,41.357 -20.67854,15.5089 -52.01944,15.5089 -17.77061,0 -33.27951,-6.7851 -15.5089,-6.7852 -27.14058,-18.4168 -11.63167,-11.9548 -18.41682,-27.78678 -6.46204,-15.832 -6.46204,-33.92572 0,-18.09371 6.46204,-33.92571 6.78515,-16.15511 18.41682,-27.78678 11.63168,-11.95478 27.14058,-18.73992 15.5089,-7.10825 33.27951,-7.10825 14.8627,0 28.43299,4.84653 13.57028,4.52343 24.23265,13.57029 10.98547,8.72376 18.41682,21.64784 7.75445,12.92408 10.66237,29.72539 l -117.60916,49.43462 q 6.46204,8.40069 15.5089,13.24719 9.04686,4.5234 20.03233,4.5234 10.33927,0 20.03233,-4.5234 9.69306,-4.8465 15.1858,-14.8627 l 45.55739,0 z"
         style="font-style:normal;font-variant:normal;font-weight:500;font-stretch:normal;font-size:medium;line-height:125%;font-family:Chalet;-inkscape-font-specification:'Chalet Medium';letter-spacing:0px;word-spacing:0px;fill:#007bff;fill-opacity:0.94117647;stroke:none;stroke-width:1px;stroke-linecap:butt;stroke-linejoin:miter;stroke-opacity:1"
         id="path4761"
         inkscape:connector-curvature="0" />
      <path
         d="m 981.24943,916.8695 q -20.3555,-3.55412 -32.9565,6.13894 -12.2778,9.36996 -12.2778,27.14058 l 0,96.28438 -42.64951,0 0,-96.28438 q 0,-17.77062 5.81584,-32.31021 6.13894,-14.53959 17.44747,-24.55576 11.3086,-10.01616 27.4637,-14.53959 16.4782,-4.52343 37.1568,-1.93861 l 0,40.06465 z"
         style="font-style:normal;font-variant:normal;font-weight:500;font-stretch:normal;font-size:medium;line-height:125%;font-family:Chalet;-inkscape-font-specification:'Chalet Medium';letter-spacing:0px;word-spacing:0px;fill:#007bff;fill-opacity:0.94117647;stroke:none;stroke-width:1px;stroke-linecap:butt;stroke-linejoin:miter;stroke-opacity:1"
         id="path4763"
         inkscape:connector-curvature="0" />
      <path
         style="opacity:1;fill:#007bff;fill-opacity:1;stroke:#df4723;stroke-width:0.00849162"
         inkscape:connector-curvature="0"
         d="m 145.15701,799.97984 c 0.61429,0.46975 1.14727,1.0479 1.73445,1.55379 5.30275,5.00463 10.16285,10.53322 14.07442,16.7032 3.78509,5.97123 6.69402,12.57483 7.98574,19.54879 0.71356,3.82124 0.94853,7.74175 0.53289,11.60823 -0.18962,1.61702 -0.46966,3.23405 -0.98458,4.77879 -0.72269,2.24035 -1.67122,4.41745 -2.97206,6.38679 -1.12017,1.69833 -2.52039,3.21597 -4.13741,4.44455 -1.77963,1.34601 -3.8122,2.33069 -5.92607,3.0082 -2.62888,0.84013 -5.38414,1.25567 -8.13028,1.48152 -3.27929,0.24381 -6.57657,0.28899 -9.84666,-0.12647 -3.7038,-0.46072 -7.38048,-1.44539 -10.67776,-3.22501 -3.05337,-1.64412 -5.73636,-4.05601 -7.46179,-7.09141 -1.99644,-3.46891 -2.65589,-7.57922 -2.33971,-11.54499 0.32521,-4.20064 1.66219,-8.27481 3.43278,-12.07797 1.53572,-3.27019 3.41472,-6.36872 5.50139,-9.31369 1.77963,-2.49328 3.69477,-4.8872 5.79066,-7.12754 0.036,-0.0271 0.1084,-0.0903 0.15357,-0.11743 -0.0361,1.88802 0.14454,3.78509 0.68656,5.60085 0.55105,1.8519 1.48152,3.59539 2.71912,5.08594 0.0724,0.0903 0.12647,0.21681 0.26198,0.23496 2.68299,-2.0145 5.22145,-4.2729 7.19981,-6.99203 2.05063,-2.80956 3.42366,-6.0978 3.9477,-9.53962 0.6955,-4.45358 0.0994,-9.08784 -1.54475,-13.27945 z"
         id="path4743" />
    </g>
  </g>
</svg>
