<?xml version="1.0" encoding="UTF-8" standalone="no"?>
<svg
   xmlns:dc="http://purl.org/dc/elements/1.1/"
   xmlns:cc="http://creativecommons.org/ns#"
   xmlns:rdf="http://www.w3.org/1999/02/22-rdf-syntax-ns#"
   xmlns:svg="http://www.w3.org/2000/svg"
   xmlns="http://www.w3.org/2000/svg"
   xmlns:sodipodi="http://sodipodi.sourceforge.net/DTD/sodipodi-0.dtd"
   xmlns:inkscape="http://www.inkscape.org/namespaces/inkscape"
   viewBox="0 0 50 50"
   enable-background="new 0 0 50 50"
   id="svg4221"
   version="1.1"
   inkscape:version="0.91 r13725"
   sodipodi:docname="i-yes.svg">
  <metadata
     id="metadata4229">
    <rdf:RDF>
      <cc:Work
         rdf:about="">
        <dc:format>image/svg+xml</dc:format>
        <dc:type
           rdf:resource="http://purl.org/dc/dcmitype/StillImage" />
      </cc:Work>
    </rdf:RDF>
  </metadata>
  <defs
     id="defs4227" />
  <sodipodi:namedview
     pagecolor="#ffffff"
     bordercolor="#666666"
     borderopacity="1"
     objecttolerance="10"
     gridtolerance="10"
     guidetolerance="10"
     inkscape:pageopacity="0"
     inkscape:pageshadow="2"
     inkscape:window-width="1920"
     inkscape:window-height="1056"
     id="namedview4225"
     showgrid="false"
     inkscape:zoom="17.54"
     inkscape:cx="22.377423"
     inkscape:cy="24.560189"
     inkscape:window-x="0"
     inkscape:window-y="24"
     inkscape:window-maximized="1"
     inkscape:current-layer="svg4221" />
  <path
     d="M 25.000001,47.980709 24.134389,47.206947 C 5.5237447,30.957962 0.47434469,25.232128 0.47434469,15.946993 c 0,-7.737611 5.77074231,-13.9277016 12.98417131,-13.9277016 5.91501,0 9.233188,3.5593015 11.541485,6.3448416 2.308296,-2.7855401 5.626474,-6.3448416 11.541484,-6.3448416 7.213429,0 12.984171,6.1900906 12.984171,13.9277016 0,9.285135 -5.0494,15.010969 -23.660044,31.259954 l -0.865611,0.773762 z M 13.458516,5.1143363 c -5.6264745,0 -10.0988002,4.7973201 -10.0988002,10.8326567 0,7.892364 4.6165945,13.153942 21.6402852,28.010158 17.023691,-14.856216 21.640284,-20.117794 21.640284,-28.010158 0,-6.0353366 -4.472326,-10.8326567 -10.0988,-10.8326567 -5.0494,0 -7.790501,3.2497967 -9.95453,5.8805857 l -1.586954,2.011779 -1.586955,-2.011779 C 21.249017,8.364133 18.507916,5.1143363 13.458516,5.1143363 Z"
     id="path4223"
     inkscape:connector-curvature="0"
     style="fill:#8bc34f;fill-opacity:0.94117647" />
</svg>
